<svg width="334" height="42" viewBox="0 0 334 42" fill="none" xmlns="http://www.w3.org/2000/svg">
<path fill-rule="evenodd" clip-rule="evenodd" d="M21.0664 27.1732C21.0664 31.8125 17.8136 35.1673 13.7843 35.1673C9.75507 35.1673 6.47945 31.8364 6.47945 27.1732V9.43237H0V27.7676C0 36.6739 6.59691 41.9794 13.7843 41.9794C20.9718 41.9794 27.5458 36.6739 27.5458 27.7676V9.43237H21.0664V27.1732Z" fill="#011640"/>
<path fill-rule="evenodd" clip-rule="evenodd" d="M51.6615 15.0044C57.0806 15.0044 61.0642 19.3977 61.0642 25.2943C61.0642 31.1908 57.0806 35.5841 51.6615 35.5841C46.2423 35.5841 42.2588 31.1908 42.2588 25.2943C42.2588 19.3977 46.2423 15.0044 51.6615 15.0044ZM35.7793 41.1356H42.2588V37.2615H42.3762C43.9324 39.8784 47.9846 41.976 52.2259 41.976C60.0724 41.976 67.9449 35.8814 67.9449 25.2703C67.9449 14.6593 60.0985 8.56466 52.2259 8.56466C47.9846 8.56466 43.9324 10.6623 42.3762 13.2791H42.2588V0H35.7793V41.1356Z" fill="#011640"/>
<path fill-rule="evenodd" clip-rule="evenodd" d="M79.4147 22.0112C80.4751 17.2968 83.8453 14.6081 87.9464 14.6081C92.0474 14.6081 95.4861 17.1499 96.8531 22.0112H79.4147ZM88.8175 8.58862C78.2826 8.58862 72.1816 16.9039 72.1816 25.2943C72.1816 33.6847 78.2859 42 88.8175 42C94.2366 41.9248 99.2348 39.062 102.84 34.2757L97.3491 31.0678C95.1109 34.2006 92.1192 35.9771 88.6315 35.9771C84.0835 35.9771 79.7704 32.4993 79.3952 27.6618H104.445V26.4285C104.468 14.0171 95.1142 8.58862 88.8207 8.58862H88.8175Z" fill="#011640"/>
<path fill-rule="evenodd" clip-rule="evenodd" d="M117.195 12.9068H117.078V9.42903H110.974V41.1391H117.453V20.1904C117.453 17.3036 119.574 15.4041 121.929 15.4041C122.543 15.4041 123.743 15.8004 124.357 16.3163L126.667 9.57935C125.795 8.98833 124.546 8.59204 123.107 8.59204C120.491 8.59204 118.252 10.2934 117.192 12.9102" fill="#011640"/>
<path fill-rule="evenodd" clip-rule="evenodd" d="M146.105 22.8516L139.553 21.5432C137.054 21.0752 135.619 20.1118 135.619 18.2123C135.619 15.6706 138.353 14.2153 141.155 14.2153C143.276 14.2153 146.082 14.9293 149.263 17.7443L152.94 12.9581C148.816 9.87314 145.139 8.5647 140.969 8.5647C133.43 8.5647 129.117 13.5491 129.117 18.9024C129.117 23.4188 131.498 26.3055 139.958 27.9351L143.635 28.6491C146.017 29.1171 147.57 30.2274 147.57 32.325C147.57 34.1015 145.331 36.3221 141.583 36.3221C138.213 36.3221 134.418 34.2997 132.108 31.6828L127.678 36.3973C131.802 40.0732 136.16 41.9727 141.276 41.9727C150.467 41.9727 154.095 35.9531 154.095 31.3138C154.095 26.6745 151.455 23.9107 146.105 22.8516Z" fill="#011640"/>
<path fill-rule="evenodd" clip-rule="evenodd" d="M164.937 22.0112C165.998 17.2968 169.368 14.6081 173.469 14.6081C177.57 14.6081 181.009 17.1499 182.376 22.0112H164.937ZM174.34 8.58862C163.805 8.58862 157.704 16.9039 157.704 25.2943C157.704 33.6847 163.808 42 174.34 42C179.759 41.9248 184.757 39.062 188.362 34.2757L182.872 31.0678C180.633 34.2006 177.642 35.9771 174.154 35.9771C169.606 35.9771 165.293 32.4993 164.918 27.6618H189.968V26.4285C189.99 14.0171 180.637 8.58862 174.343 8.58862H174.34Z" fill="#011640"/>
<path fill-rule="evenodd" clip-rule="evenodd" d="M201.959 22.0112C203.019 17.2968 206.389 14.6081 210.49 14.6081C214.591 14.6081 218.03 17.1499 219.397 22.0112H201.959ZM211.361 8.58862C200.827 8.58862 194.726 16.9039 194.726 25.2943C194.726 33.6847 200.83 42 211.361 42C216.781 41.9248 221.779 39.062 225.384 34.2757L219.893 31.0678C217.655 34.2006 214.663 35.9771 211.175 35.9771C206.627 35.9771 202.314 32.4993 201.939 27.6618H226.989V26.4285C227.012 14.0171 217.658 8.58862 211.365 8.58862H211.361Z" fill="#011640"/>
<path fill-rule="evenodd" clip-rule="evenodd" d="M233.494 41.1356H239.974V23.3948C239.974 18.2123 243.226 15.4007 247.396 15.4007C251.565 15.4007 254.561 17.7682 254.561 23.5178V41.1356H261.04V22.0112C261.04 14.164 255.667 8.58857 249.327 8.58857C245.203 8.58857 241.905 10.488 240.114 13.426H239.996V0H233.517V41.1356H233.494Z" fill="#E83434"/>
<path fill-rule="evenodd" clip-rule="evenodd" d="M288.721 27.1937C288.721 31.833 285.469 35.1878 281.439 35.1878C277.41 35.1878 274.157 31.8569 274.157 27.1937V9.45288H267.678V27.7881C267.678 36.6944 274.275 41.9999 281.462 41.9999C288.65 41.9999 295.246 36.6944 295.246 27.7881V9.45288H288.767V27.1937H288.721Z" fill="#E83434"/>
<path fill-rule="evenodd" clip-rule="evenodd" d="M317.716 15.0044C323.135 15.0044 327.119 19.3977 327.119 25.2943C327.119 31.1908 323.135 35.5841 317.716 35.5841C312.297 35.5841 308.313 31.1908 308.313 25.2943C308.313 19.3977 312.297 15.0044 317.716 15.0044ZM301.834 41.1356H308.313V37.2615H308.431C309.987 39.8784 314.039 41.976 318.281 41.976C326.127 41.976 334 35.8814 334 25.2703C334 14.6593 326.153 8.56466 318.281 8.56466C314.039 8.56466 309.987 10.6623 308.431 13.2791H308.313V0H301.834V41.1356Z" fill="#E83434"/>
<path fill-rule="evenodd" clip-rule="evenodd" d="M13.7831 1.13745C11.9691 1.13745 10.5303 2.64404 10.5303 4.5435C10.5303 6.44296 11.9691 7.94955 13.7831 7.94955C15.597 7.94955 17.0358 6.44296 17.0358 4.5435C17.013 2.64404 15.5742 1.13745 13.7831 1.13745Z" fill="#E83434"/>
<path fill-rule="evenodd" clip-rule="evenodd" d="M13.7831 11.2771C11.9691 11.2771 10.5303 12.7837 10.5303 14.6831C10.5303 16.5826 11.9691 18.0892 13.7831 18.0892C15.597 18.0892 17.0358 16.5826 17.0358 14.6831C17.013 12.7837 15.5742 11.2771 13.7831 11.2771Z" fill="#E83434"/>
</svg>
