<svg width="180" height="48" viewBox="0 0 180 48" fill="none" xmlns="http://www.w3.org/2000/svg">
<circle cx="24" cy="24" r="24" fill="#040082"/>
<mask id="mask0_814_1638" style="mask-type:alpha" maskUnits="userSpaceOnUse" x="0" y="0" width="48" height="48">
<circle cx="24" cy="24" r="24" fill="white"/>
</mask>
<g mask="url(#mask0_814_1638)">
<path d="M7.60938 53.9924L7.60937 40.6079C7.60937 39.5034 8.5048 38.6079 9.60937 38.6079L38.576 38.6079C39.6806 38.6079 40.576 39.5034 40.576 40.6079L40.576 53.9924L7.60938 53.9924Z" fill="#DDECFB"/>
<path d="M11.0754 36.9812C10.1417 36.9812 9.38477 36.2243 9.38477 35.2906C9.38477 34.3569 10.1417 33.6 11.0754 33.6L36.7725 33.6C37.7062 33.6 38.4631 34.3569 38.4631 35.2906C38.4631 36.2243 37.7062 36.9812 36.7725 36.9812L11.0754 36.9812Z" fill="#DDECFB"/>
<rect x="14.4424" y="25.1104" width="3.85525" height="16.9631" rx="1.92762" transform="rotate(-75 14.4424 25.1104)" fill="#DDECFB"/>
<rect x="19.1396" y="8.59145" width="3.85525" height="16.9631" rx="1.92762" transform="rotate(-75 19.1396 8.59145)" fill="#DDECFB"/>
<rect x="18.5127" y="20.923" width="10.7947" height="11.5657" rx="1" transform="rotate(-75 18.5127 20.923)" fill="#DDECFB"/>
<rect x="31.8311" y="20.7274" width="4.6263" height="23.1315" rx="2" transform="rotate(-75 31.8311 20.7274)" fill="#DDECFB"/>
</g>
<path d="M161.61 33.8V14.2H169.226C171.354 14.2 173.212 14.564 174.798 15.292C176.385 16.02 177.617 17.112 178.494 18.568C179.39 20.024 179.838 21.844 179.838 24.028C179.838 26.0813 179.4 27.8453 178.522 29.32C177.645 30.776 176.394 31.8867 174.77 32.652C173.146 33.4173 171.224 33.8 169.002 33.8H161.61ZM166.538 29.488H169.086C170.374 29.488 171.438 29.2827 172.278 28.872C173.118 28.4613 173.744 27.8547 174.154 27.052C174.584 26.2493 174.798 25.2413 174.798 24.028C174.798 22.684 174.593 21.6107 174.182 20.808C173.79 20.0053 173.174 19.4267 172.334 19.072C171.494 18.6987 170.412 18.512 169.086 18.512H166.538V29.488Z" fill="#040082"/>
<path d="M152.778 33.8V14.2H157.706V33.8H152.778Z" fill="#040082"/>
<path d="M132.708 33.8V14.2H142.956C144.319 14.2 145.448 14.4333 146.344 14.9C147.259 15.348 147.94 15.9733 148.388 16.776C148.855 17.5787 149.088 18.4933 149.088 19.52C149.088 20.304 148.939 21.0693 148.64 21.816C148.36 22.5627 147.819 23.1693 147.016 23.636V23.692C147.856 23.9907 148.537 24.5133 149.06 25.26C149.601 25.988 149.872 26.828 149.872 27.78C149.872 28.9747 149.62 30.0293 149.116 30.944C148.612 31.84 147.865 32.54 146.876 33.044C145.905 33.548 144.692 33.8 143.236 33.8H132.708ZM137.636 29.74H142.228C143.087 29.74 143.731 29.5813 144.16 29.264C144.608 28.928 144.832 28.368 144.832 27.584C144.832 26.8933 144.636 26.38 144.244 26.044C143.871 25.6893 143.301 25.512 142.536 25.512H137.636V29.74ZM137.636 22.068H142.312C143.003 22.068 143.525 21.9093 143.88 21.592C144.253 21.256 144.44 20.752 144.44 20.08C144.44 19.4267 144.244 18.9413 143.852 18.624C143.479 18.288 142.863 18.12 142.004 18.12H137.636V22.068Z" fill="#040082"/>
<path d="M121.382 34.08C120.356 34.08 119.348 34.0053 118.358 33.856C117.369 33.7067 116.398 33.5013 115.446 33.24L113.738 32.764L114.522 28.984L116.734 29.32C117.388 29.4133 118.144 29.5067 119.002 29.6C119.88 29.6747 120.738 29.712 121.578 29.712C122.549 29.712 123.249 29.5813 123.678 29.32C124.126 29.04 124.35 28.648 124.35 28.144C124.35 27.864 124.276 27.6213 124.126 27.416C123.977 27.2107 123.632 26.996 123.09 26.772C122.568 26.5293 121.746 26.24 120.626 25.904C119.077 25.4373 117.845 24.9613 116.93 24.476C116.016 23.972 115.362 23.3653 114.97 22.656C114.597 21.928 114.41 21.004 114.41 19.884C114.41 18.484 114.756 17.3453 115.446 16.468C116.156 15.5907 117.117 14.9467 118.33 14.536C119.562 14.1253 120.944 13.92 122.474 13.92C123.333 13.92 124.21 13.9853 125.106 14.116C126.021 14.2467 126.926 14.4333 127.822 14.676L129.166 15.012L128.466 18.736L126.338 18.484C125.834 18.428 125.256 18.372 124.602 18.316C123.968 18.26 123.258 18.232 122.474 18.232C121.448 18.232 120.682 18.3627 120.178 18.624C119.674 18.8853 119.422 19.2867 119.422 19.828C119.422 20.0893 119.506 20.3227 119.674 20.528C119.861 20.7147 120.244 20.9107 120.822 21.116C121.42 21.3027 122.316 21.564 123.51 21.9C125.041 22.2733 126.245 22.7213 127.122 23.244C128 23.7667 128.625 24.3827 128.998 25.092C129.372 25.7827 129.558 26.6227 129.558 27.612C129.558 29.0867 129.194 30.3 128.466 31.252C127.738 32.204 126.758 32.9133 125.526 33.38C124.294 33.8467 122.913 34.08 121.382 34.08Z" fill="#040082"/>
<path d="M92.376 33.8V14.2H96.744L105.788 25.148H105.844V14.2H110.744V33.8H106.656L97.332 22.432H97.276V33.8H92.376Z" fill="#040082"/>
<path d="M83.5439 33.8V14.2H88.4719V33.8H83.5439Z" fill="#040082"/>
<path d="M64 33.8V30.328L73.744 18.512H64.168V14.2H80.352V17.84L70.86 29.488H80.548V33.8H64Z" fill="#040082"/>
</svg>
